<mxfile host="app.diagrams.net" modified="2024-05-31T15:04:22.328Z" agent="Mozilla/5.0 (Windows NT 10.0; Win64; x64; rv:126.0) Gecko/20100101 Firefox/126.0" etag="ZHMzCLj2VTefYHMtBLiV" version="24.4.8" type="device">
  <diagram name="Seite-1" id="z0DCrYU8apStYery9Ikm">
    <mxGraphModel dx="1195" dy="628" grid="1" gridSize="10" guides="1" tooltips="1" connect="1" arrows="1" fold="1" page="1" pageScale="1" pageWidth="827" pageHeight="1169" math="0" shadow="0">
      <root>
        <mxCell id="0" />
        <mxCell id="1" parent="0" />
        <mxCell id="Ar2ikB2TclvATsd14L9x-163" style="edgeStyle=orthogonalEdgeStyle;rounded=0;orthogonalLoop=1;jettySize=auto;html=1;exitX=0;exitY=0.5;exitDx=0;exitDy=0;entryX=0.501;entryY=0.061;entryDx=0;entryDy=0;entryPerimeter=0;endArrow=none;endFill=0;fillColor=#d5e8d4;strokeColor=#80BA27;fontSize=13;" edge="1" parent="1" source="Ar2ikB2TclvATsd14L9x-237" target="Ar2ikB2TclvATsd14L9x-238">
          <mxGeometry relative="1" as="geometry" />
        </mxCell>
        <mxCell id="Ar2ikB2TclvATsd14L9x-164" style="edgeStyle=orthogonalEdgeStyle;rounded=0;orthogonalLoop=1;jettySize=auto;html=1;exitX=0;exitY=0.5;exitDx=0;exitDy=0;entryX=0.501;entryY=0.061;entryDx=0;entryDy=0;entryPerimeter=0;endArrow=none;endFill=0;fillColor=#d5e8d4;strokeColor=#80BA27;fontSize=13;" edge="1" parent="1" source="Ar2ikB2TclvATsd14L9x-230" target="Ar2ikB2TclvATsd14L9x-231">
          <mxGeometry relative="1" as="geometry" />
        </mxCell>
        <mxCell id="Ar2ikB2TclvATsd14L9x-165" style="edgeStyle=orthogonalEdgeStyle;rounded=0;orthogonalLoop=1;jettySize=auto;html=1;exitX=0;exitY=0.5;exitDx=0;exitDy=0;entryX=0.498;entryY=0.104;entryDx=0;entryDy=0;entryPerimeter=0;endArrow=none;endFill=0;fillColor=#d5e8d4;strokeColor=#80BA27;fontSize=13;" edge="1" parent="1" source="Ar2ikB2TclvATsd14L9x-228" target="Ar2ikB2TclvATsd14L9x-232">
          <mxGeometry relative="1" as="geometry" />
        </mxCell>
        <mxCell id="Ar2ikB2TclvATsd14L9x-166" style="edgeStyle=orthogonalEdgeStyle;rounded=0;orthogonalLoop=1;jettySize=auto;html=1;exitX=0;exitY=0.5;exitDx=0;exitDy=0;entryX=0.501;entryY=0.167;entryDx=0;entryDy=0;entryPerimeter=0;endArrow=none;endFill=0;fillColor=#d5e8d4;strokeColor=#80BA27;fontSize=13;" edge="1" parent="1" source="Ar2ikB2TclvATsd14L9x-227" target="Ar2ikB2TclvATsd14L9x-229">
          <mxGeometry relative="1" as="geometry" />
        </mxCell>
        <mxCell id="Ar2ikB2TclvATsd14L9x-167" style="edgeStyle=orthogonalEdgeStyle;rounded=0;orthogonalLoop=1;jettySize=auto;html=1;entryX=0.583;entryY=-0.011;entryDx=0;entryDy=0;entryPerimeter=0;startArrow=none;startFill=0;endArrow=none;endFill=0;strokeColor=#808080;exitX=0;exitY=0;exitDx=0;exitDy=30;exitPerimeter=0;" edge="1" parent="1" source="Ar2ikB2TclvATsd14L9x-203">
          <mxGeometry relative="1" as="geometry">
            <mxPoint x="731" y="1070" as="sourcePoint" />
            <mxPoint x="730.71" y="1200" as="targetPoint" />
            <Array as="points">
              <mxPoint x="791" y="1200" />
            </Array>
          </mxGeometry>
        </mxCell>
        <mxCell id="Ar2ikB2TclvATsd14L9x-168" style="edgeStyle=orthogonalEdgeStyle;rounded=0;orthogonalLoop=1;jettySize=auto;html=1;entryX=0.583;entryY=-0.011;entryDx=0;entryDy=0;entryPerimeter=0;startArrow=none;startFill=0;endArrow=none;endFill=0;strokeColor=#808080;exitX=1;exitY=0.5;exitDx=0;exitDy=0;exitPerimeter=0;" edge="1" parent="1" source="Ar2ikB2TclvATsd14L9x-203">
          <mxGeometry relative="1" as="geometry">
            <mxPoint x="891" y="960" as="sourcePoint" />
            <mxPoint x="891" y="1200" as="targetPoint" />
            <Array as="points">
              <mxPoint x="891" y="1010" />
              <mxPoint x="891" y="1010" />
            </Array>
          </mxGeometry>
        </mxCell>
        <mxCell id="Ar2ikB2TclvATsd14L9x-169" style="edgeStyle=orthogonalEdgeStyle;rounded=0;orthogonalLoop=1;jettySize=auto;html=1;entryX=0.583;entryY=-0.011;entryDx=0;entryDy=0;entryPerimeter=0;startArrow=none;startFill=0;endArrow=none;endFill=0;strokeColor=#808080;" edge="1" parent="1">
          <mxGeometry relative="1" as="geometry">
            <mxPoint x="951" y="920" as="sourcePoint" />
            <mxPoint x="951" y="1200" as="targetPoint" />
            <Array as="points">
              <mxPoint x="951" y="980" />
              <mxPoint x="951" y="980" />
            </Array>
          </mxGeometry>
        </mxCell>
        <mxCell id="Ar2ikB2TclvATsd14L9x-170" style="edgeStyle=orthogonalEdgeStyle;rounded=0;orthogonalLoop=1;jettySize=auto;html=1;entryX=0.993;entryY=0.017;entryDx=0;entryDy=0;entryPerimeter=0;startArrow=none;startFill=0;endArrow=none;endFill=0;strokeColor=#808080;exitX=0;exitY=0;exitDx=0;exitDy=30;exitPerimeter=0;" edge="1" parent="1">
          <mxGeometry relative="1" as="geometry">
            <mxPoint x="1090.71" y="880" as="sourcePoint" />
            <mxPoint x="1090.71" y="1201" as="targetPoint" />
            <Array as="points">
              <mxPoint x="1090.71" y="1200" />
            </Array>
          </mxGeometry>
        </mxCell>
        <mxCell id="Ar2ikB2TclvATsd14L9x-171" style="edgeStyle=orthogonalEdgeStyle;rounded=0;orthogonalLoop=1;jettySize=auto;html=1;entryX=0.583;entryY=-0.011;entryDx=0;entryDy=0;entryPerimeter=0;startArrow=none;startFill=0;endArrow=none;endFill=0;strokeColor=#808080;exitX=1;exitY=0.5;exitDx=0;exitDy=0;exitPerimeter=0;" edge="1" parent="1" source="Ar2ikB2TclvATsd14L9x-207">
          <mxGeometry relative="1" as="geometry">
            <mxPoint x="1151" y="910" as="sourcePoint" />
            <mxPoint x="1150.43" y="1200" as="targetPoint" />
            <Array as="points">
              <mxPoint x="1151" y="980" />
              <mxPoint x="1150" y="980" />
            </Array>
          </mxGeometry>
        </mxCell>
        <mxCell id="Ar2ikB2TclvATsd14L9x-172" style="edgeStyle=orthogonalEdgeStyle;rounded=0;orthogonalLoop=1;jettySize=auto;html=1;entryX=0.583;entryY=-0.011;entryDx=0;entryDy=0;entryPerimeter=0;startArrow=none;startFill=0;endArrow=none;endFill=0;strokeColor=#808080;exitX=1;exitY=0.5;exitDx=0;exitDy=0;exitPerimeter=0;" edge="1" parent="1">
          <mxGeometry relative="1" as="geometry">
            <mxPoint x="920.4300000000001" y="865" as="sourcePoint" />
            <mxPoint x="920.4300000000001" y="1200" as="targetPoint" />
            <Array as="points">
              <mxPoint x="920.4300000000001" y="980" />
              <mxPoint x="920.4300000000001" y="980" />
            </Array>
          </mxGeometry>
        </mxCell>
        <mxCell id="Ar2ikB2TclvATsd14L9x-173" style="edgeStyle=orthogonalEdgeStyle;rounded=0;orthogonalLoop=1;jettySize=auto;html=1;entryX=0.993;entryY=0.017;entryDx=0;entryDy=0;entryPerimeter=0;startArrow=none;startFill=0;endArrow=none;endFill=0;strokeColor=#808080;exitX=0;exitY=0;exitDx=0;exitDy=30;exitPerimeter=0;" edge="1" parent="1">
          <mxGeometry relative="1" as="geometry">
            <mxPoint x="821.1299999999999" y="880" as="sourcePoint" />
            <mxPoint x="820.7099999999998" y="1201.02" as="targetPoint" />
            <Array as="points">
              <mxPoint x="821.1299999999999" y="1200" />
            </Array>
          </mxGeometry>
        </mxCell>
        <mxCell id="Ar2ikB2TclvATsd14L9x-174" style="edgeStyle=orthogonalEdgeStyle;rounded=0;orthogonalLoop=1;jettySize=auto;html=1;entryX=0.321;entryY=-0.002;entryDx=0;entryDy=0;entryPerimeter=0;startArrow=none;startFill=0;endArrow=none;endFill=0;strokeColor=#808080;exitX=1;exitY=0.5;exitDx=0;exitDy=0;exitPerimeter=0;" edge="1" parent="1" target="Ar2ikB2TclvATsd14L9x-184">
          <mxGeometry relative="1" as="geometry">
            <mxPoint x="620.72" y="1040" as="sourcePoint" />
            <mxPoint x="620.43" y="1175" as="targetPoint" />
            <Array as="points">
              <mxPoint x="621" y="1066" />
            </Array>
          </mxGeometry>
        </mxCell>
        <mxCell id="Ar2ikB2TclvATsd14L9x-175" style="edgeStyle=orthogonalEdgeStyle;rounded=0;orthogonalLoop=1;jettySize=auto;html=1;entryX=0.583;entryY=-0.011;entryDx=0;entryDy=0;entryPerimeter=0;startArrow=none;startFill=0;endArrow=none;endFill=0;exitX=0;exitY=0;exitDx=0;exitDy=30;exitPerimeter=0;strokeColor=#808080;" edge="1" parent="1" source="Ar2ikB2TclvATsd14L9x-193">
          <mxGeometry relative="1" as="geometry">
            <mxPoint x="526" y="1144.97" as="sourcePoint" />
            <mxPoint x="526" y="1199.97" as="targetPoint" />
            <Array as="points" />
          </mxGeometry>
        </mxCell>
        <mxCell id="Ar2ikB2TclvATsd14L9x-176" style="edgeStyle=orthogonalEdgeStyle;rounded=0;orthogonalLoop=1;jettySize=auto;html=1;exitX=0;exitY=0;exitDx=0;exitDy=30;exitPerimeter=0;entryX=0.583;entryY=-0.011;entryDx=0;entryDy=0;entryPerimeter=0;startArrow=none;startFill=0;endArrow=none;endFill=0;strokeColor=#808080;" edge="1" parent="1" source="Ar2ikB2TclvATsd14L9x-195" target="Ar2ikB2TclvATsd14L9x-183">
          <mxGeometry relative="1" as="geometry" />
        </mxCell>
        <mxCell id="Ar2ikB2TclvATsd14L9x-177" value="&lt;div style=&quot;font-size: 13px;&quot; align=&quot;left&quot;&gt;&lt;font style=&quot;font-size: 14px;&quot;&gt;Woche&lt;/font&gt;&lt;/div&gt;" style="rounded=1;whiteSpace=wrap;html=1;align=left;strokeColor=#666666;fillColor=#f5f5f5;gradientColor=#b3b3b3;" vertex="1" parent="1">
          <mxGeometry x="450" y="1200" width="770" height="30" as="geometry" />
        </mxCell>
        <mxCell id="Ar2ikB2TclvATsd14L9x-178" value="&lt;div style=&quot;font-size: 13px;&quot; align=&quot;left&quot;&gt;&lt;font style=&quot;font-size: 14px;&quot;&gt;Datum&lt;/font&gt;&lt;/div&gt;" style="rounded=1;whiteSpace=wrap;html=1;align=left;fillColor=#f5f5f5;strokeColor=#666666;gradientColor=#b3b3b3;" vertex="1" parent="1">
          <mxGeometry x="450" y="1230" width="770" height="30" as="geometry" />
        </mxCell>
        <mxCell id="Ar2ikB2TclvATsd14L9x-179" value="" style="verticalLabelPosition=bottom;verticalAlign=top;html=1;shape=mxgraph.basic.8_point_star;fillColor=#f8cecc;gradientColor=#ea6b66;strokeColor=#b85450;" vertex="1" parent="1">
          <mxGeometry x="511" y="1250" width="30" height="30" as="geometry" />
        </mxCell>
        <mxCell id="Ar2ikB2TclvATsd14L9x-180" value="" style="triangle;whiteSpace=wrap;html=1;rotation=-90;fillColor=#b1ddf0;strokeColor=#10739e;" vertex="1" parent="1">
          <mxGeometry x="1031" y="1250" width="20" height="30" as="geometry" />
        </mxCell>
        <mxCell id="Ar2ikB2TclvATsd14L9x-181" value="&lt;div style=&quot;font-size: 13px;&quot;&gt;&lt;font style=&quot;font-size: 13px;&quot;&gt;1&lt;/font&gt;&lt;/div&gt;&lt;div style=&quot;font-size: 13px;&quot;&gt;&lt;font style=&quot;font-size: 13px;&quot;&gt;&lt;br&gt;&lt;/font&gt;&lt;/div&gt;&lt;div style=&quot;font-size: 13px;&quot;&gt;&lt;font style=&quot;font-size: 13px;&quot;&gt;11.04&lt;/font&gt;&lt;br&gt;&lt;/div&gt;" style="text;html=1;align=center;verticalAlign=middle;resizable=0;points=[];autosize=1;strokeColor=none;fillColor=none;" vertex="1" parent="1">
          <mxGeometry x="501" y="1200" width="50" height="60" as="geometry" />
        </mxCell>
        <mxCell id="Ar2ikB2TclvATsd14L9x-182" value="&lt;font color=&quot;#ff5353&quot; style=&quot;font-size: 13px;&quot;&gt;Projektbeginn&lt;/font&gt;" style="text;html=1;align=center;verticalAlign=middle;resizable=0;points=[];autosize=1;strokeColor=none;fillColor=none;fontSize=13;" vertex="1" parent="1">
          <mxGeometry x="476" y="1280" width="100" height="30" as="geometry" />
        </mxCell>
        <mxCell id="Ar2ikB2TclvATsd14L9x-183" value="&lt;div style=&quot;font-size: 13px;&quot;&gt;&lt;font style=&quot;font-size: 13px;&quot;&gt;2&lt;br&gt;&lt;/font&gt;&lt;/div&gt;&lt;div style=&quot;font-size: 13px;&quot;&gt;&lt;font style=&quot;font-size: 13px;&quot;&gt;&lt;br&gt;&lt;/font&gt;&lt;/div&gt;&lt;div style=&quot;font-size: 13px;&quot;&gt;&lt;font style=&quot;font-size: 13px;&quot;&gt;18.04&lt;/font&gt;&lt;br&gt;&lt;/div&gt;" style="text;html=1;align=center;verticalAlign=middle;resizable=0;points=[];autosize=1;strokeColor=none;fillColor=none;" vertex="1" parent="1">
          <mxGeometry x="546" y="1200" width="60" height="60" as="geometry" />
        </mxCell>
        <mxCell id="Ar2ikB2TclvATsd14L9x-184" value="&lt;div style=&quot;font-size: 13px;&quot;&gt;&lt;font style=&quot;font-size: 13px;&quot;&gt;3&lt;/font&gt;&lt;/div&gt;&lt;div style=&quot;font-size: 13px;&quot;&gt;&lt;font style=&quot;font-size: 13px;&quot;&gt;&lt;br&gt;&lt;/font&gt;&lt;/div&gt;&lt;div style=&quot;font-size: 13px;&quot;&gt;&lt;font style=&quot;font-size: 13px;&quot;&gt;&lt;font style=&quot;font-size: 13px;&quot;&gt;25.04&lt;/font&gt;&lt;font style=&quot;font-size: 13px;&quot;&gt;&lt;br&gt;&lt;/font&gt;&lt;/font&gt;&lt;/div&gt;" style="text;html=1;align=center;verticalAlign=middle;resizable=0;points=[];autosize=1;strokeColor=none;fillColor=none;" vertex="1" parent="1">
          <mxGeometry x="601" y="1200" width="60" height="60" as="geometry" />
        </mxCell>
        <mxCell id="Ar2ikB2TclvATsd14L9x-185" value="&lt;div style=&quot;font-size: 13px;&quot;&gt;&lt;font style=&quot;font-size: 13px;&quot;&gt;4&lt;/font&gt;&lt;/div&gt;&lt;div style=&quot;font-size: 13px;&quot;&gt;&lt;font style=&quot;font-size: 13px;&quot;&gt;&lt;br&gt;&lt;/font&gt;&lt;/div&gt;&lt;div style=&quot;font-size: 13px;&quot;&gt;&lt;font style=&quot;font-size: 13px;&quot;&gt;&lt;font style=&quot;font-size: 13px;&quot;&gt;02.05&lt;/font&gt;&lt;font style=&quot;font-size: 13px;&quot;&gt;&lt;br&gt;&lt;/font&gt;&lt;/font&gt;&lt;/div&gt;" style="text;html=1;align=center;verticalAlign=middle;resizable=0;points=[];autosize=1;strokeColor=none;fillColor=none;" vertex="1" parent="1">
          <mxGeometry x="651" y="1200" width="60" height="60" as="geometry" />
        </mxCell>
        <mxCell id="Ar2ikB2TclvATsd14L9x-186" value="&lt;div style=&quot;font-size: 13px;&quot;&gt;&lt;font style=&quot;font-size: 13px;&quot;&gt;5&lt;/font&gt;&lt;/div&gt;&lt;div style=&quot;font-size: 13px;&quot;&gt;&lt;font style=&quot;font-size: 13px;&quot;&gt;&lt;br&gt;&lt;/font&gt;&lt;/div&gt;&lt;div style=&quot;font-size: 13px;&quot;&gt;&lt;font style=&quot;font-size: 13px;&quot;&gt;&lt;font style=&quot;font-size: 13px;&quot;&gt;09.05&lt;/font&gt;&lt;font style=&quot;font-size: 13px;&quot;&gt;&lt;br&gt;&lt;/font&gt;&lt;/font&gt;&lt;/div&gt;" style="text;html=1;align=center;verticalAlign=middle;resizable=0;points=[];autosize=1;strokeColor=none;fillColor=none;" vertex="1" parent="1">
          <mxGeometry x="701" y="1200" width="60" height="60" as="geometry" />
        </mxCell>
        <mxCell id="Ar2ikB2TclvATsd14L9x-187" value="&lt;font style=&quot;font-size: 13px;&quot;&gt;6&lt;/font&gt;&lt;br&gt;&lt;div style=&quot;font-size: 13px;&quot;&gt;&lt;font style=&quot;font-size: 13px;&quot;&gt;&lt;br&gt;&lt;/font&gt;&lt;/div&gt;&lt;div style=&quot;font-size: 13px;&quot;&gt;&lt;font style=&quot;font-size: 13px;&quot;&gt;&lt;font style=&quot;font-size: 13px;&quot;&gt;16.05&lt;/font&gt;&lt;font style=&quot;font-size: 13px;&quot;&gt;&lt;br&gt;&lt;/font&gt;&lt;/font&gt;&lt;/div&gt;" style="text;html=1;align=center;verticalAlign=middle;resizable=0;points=[];autosize=1;strokeColor=none;fillColor=none;" vertex="1" parent="1">
          <mxGeometry x="751" y="1200" width="60" height="60" as="geometry" />
        </mxCell>
        <mxCell id="Ar2ikB2TclvATsd14L9x-188" value="&lt;div style=&quot;font-size: 13px;&quot;&gt;7&lt;br&gt;&lt;/div&gt;&lt;div style=&quot;font-size: 13px;&quot;&gt;&lt;font style=&quot;font-size: 13px;&quot;&gt;&lt;br&gt;&lt;/font&gt;&lt;/div&gt;&lt;div style=&quot;font-size: 13px;&quot;&gt;&lt;font style=&quot;font-size: 13px;&quot;&gt;&lt;font style=&quot;font-size: 13px;&quot;&gt;23.05&lt;/font&gt;&lt;font style=&quot;font-size: 13px;&quot;&gt;&lt;br&gt;&lt;/font&gt;&lt;/font&gt;&lt;/div&gt;" style="text;html=1;align=center;verticalAlign=middle;resizable=0;points=[];autosize=1;strokeColor=none;fillColor=none;" vertex="1" parent="1">
          <mxGeometry x="805" y="1200" width="60" height="60" as="geometry" />
        </mxCell>
        <mxCell id="Ar2ikB2TclvATsd14L9x-189" value="&lt;div style=&quot;font-size: 13px;&quot;&gt;&lt;font style=&quot;font-size: 13px;&quot;&gt;8&lt;/font&gt;&lt;/div&gt;&lt;div style=&quot;font-size: 13px;&quot;&gt;&lt;font style=&quot;font-size: 13px;&quot;&gt;&lt;br&gt;&lt;/font&gt;&lt;/div&gt;&lt;div style=&quot;font-size: 13px;&quot;&gt;&lt;font style=&quot;font-size: 13px;&quot;&gt;&lt;font style=&quot;font-size: 13px;&quot;&gt;30.05&lt;/font&gt;&lt;font style=&quot;font-size: 13px;&quot;&gt;&lt;br&gt;&lt;/font&gt;&lt;/font&gt;&lt;/div&gt;" style="text;html=1;align=center;verticalAlign=middle;resizable=0;points=[];autosize=1;strokeColor=none;fillColor=none;" vertex="1" parent="1">
          <mxGeometry x="861" y="1200" width="60" height="60" as="geometry" />
        </mxCell>
        <mxCell id="Ar2ikB2TclvATsd14L9x-190" value="&lt;div style=&quot;font-size: 13px;&quot;&gt;&lt;font style=&quot;font-size: 13px;&quot;&gt;9&lt;/font&gt;&lt;/div&gt;&lt;div style=&quot;font-size: 13px;&quot;&gt;&lt;font style=&quot;font-size: 13px;&quot;&gt;&lt;br&gt;&lt;/font&gt;&lt;/div&gt;&lt;div style=&quot;font-size: 13px;&quot;&gt;&lt;font style=&quot;font-size: 13px;&quot;&gt;&lt;font style=&quot;font-size: 13px;&quot;&gt;06.06&lt;/font&gt;&lt;font style=&quot;font-size: 13px;&quot;&gt;&lt;br&gt;&lt;/font&gt;&lt;/font&gt;&lt;/div&gt;" style="text;html=1;align=center;verticalAlign=middle;resizable=0;points=[];autosize=1;strokeColor=none;fillColor=none;" vertex="1" parent="1">
          <mxGeometry x="911" y="1200" width="60" height="60" as="geometry" />
        </mxCell>
        <mxCell id="Ar2ikB2TclvATsd14L9x-191" value="&lt;div style=&quot;font-size: 13px;&quot;&gt;&lt;font style=&quot;font-size: 13px;&quot;&gt;10&lt;/font&gt;&lt;/div&gt;&lt;div style=&quot;font-size: 13px;&quot;&gt;&lt;font style=&quot;font-size: 13px;&quot;&gt;&lt;br&gt;&lt;/font&gt;&lt;/div&gt;&lt;div style=&quot;font-size: 13px;&quot;&gt;&lt;font style=&quot;font-size: 13px;&quot;&gt;&lt;font style=&quot;font-size: 13px;&quot;&gt;13.06&lt;/font&gt;&lt;font style=&quot;font-size: 13px;&quot;&gt;&lt;br&gt;&lt;/font&gt;&lt;/font&gt;&lt;/div&gt;" style="text;html=1;align=center;verticalAlign=middle;resizable=0;points=[];autosize=1;strokeColor=none;fillColor=none;" vertex="1" parent="1">
          <mxGeometry x="961" y="1200" width="60" height="60" as="geometry" />
        </mxCell>
        <mxCell id="Ar2ikB2TclvATsd14L9x-192" value="" style="verticalLabelPosition=bottom;verticalAlign=top;html=1;shape=mxgraph.basic.8_point_star;fillColor=#f8cecc;gradientColor=#ea6b66;strokeColor=#b85450;" vertex="1" parent="1">
          <mxGeometry x="926" y="1250" width="30" height="30" as="geometry" />
        </mxCell>
        <mxCell id="Ar2ikB2TclvATsd14L9x-193" value="Recherche" style="html=1;shadow=0;dashed=0;align=center;verticalAlign=middle;shape=mxgraph.arrows2.arrow;dy=0;dx=10;notch=0;fillColor=#6d8764;fontColor=#ffffff;strokeColor=#3A5431;fontSize=13;" vertex="1" parent="1">
          <mxGeometry x="526" y="1090" width="155" height="30" as="geometry" />
        </mxCell>
        <mxCell id="Ar2ikB2TclvATsd14L9x-194" value="Organisation" style="html=1;shadow=0;dashed=0;align=center;verticalAlign=middle;shape=mxgraph.arrows2.arrow;dy=0;dx=10;notch=0;fillColor=#6d8764;fontColor=#ffffff;strokeColor=#3A5431;fontSize=13;" vertex="1" parent="1">
          <mxGeometry x="526" y="1130" width="105" height="30" as="geometry" />
        </mxCell>
        <mxCell id="Ar2ikB2TclvATsd14L9x-195" value="Entwurf" style="html=1;shadow=0;dashed=0;align=center;verticalAlign=middle;shape=mxgraph.arrows2.arrow;dy=0;dx=10;notch=0;fillColor=#6d8764;fontColor=#ffffff;strokeColor=#3A5431;fontSize=13;" vertex="1" parent="1">
          <mxGeometry x="581" y="1050" width="150" height="30" as="geometry" />
        </mxCell>
        <mxCell id="Ar2ikB2TclvATsd14L9x-196" style="edgeStyle=orthogonalEdgeStyle;rounded=0;orthogonalLoop=1;jettySize=auto;html=1;entryX=0.583;entryY=-0.011;entryDx=0;entryDy=0;entryPerimeter=0;startArrow=none;startFill=0;endArrow=none;endFill=0;strokeColor=#808080;exitX=1;exitY=0.5;exitDx=0;exitDy=0;exitPerimeter=0;" edge="1" parent="1" source="Ar2ikB2TclvATsd14L9x-193">
          <mxGeometry relative="1" as="geometry">
            <mxPoint x="680" y="1150" as="sourcePoint" />
            <mxPoint x="680.4300000000001" y="1199" as="targetPoint" />
            <Array as="points">
              <mxPoint x="680" y="1145" />
              <mxPoint x="680" y="1180" />
            </Array>
          </mxGeometry>
        </mxCell>
        <mxCell id="Ar2ikB2TclvATsd14L9x-197" style="edgeStyle=orthogonalEdgeStyle;rounded=0;orthogonalLoop=1;jettySize=auto;html=1;startArrow=none;startFill=0;endArrow=none;endFill=0;exitX=1;exitY=0.5;exitDx=0;exitDy=0;exitPerimeter=0;strokeColor=#808080;" edge="1" parent="1" source="Ar2ikB2TclvATsd14L9x-194">
          <mxGeometry relative="1" as="geometry">
            <mxPoint x="631" y="1140" as="sourcePoint" />
            <mxPoint x="631" y="1200" as="targetPoint" />
            <Array as="points">
              <mxPoint x="631" y="1160" />
              <mxPoint x="631" y="1160" />
            </Array>
          </mxGeometry>
        </mxCell>
        <mxCell id="Ar2ikB2TclvATsd14L9x-198" value="" style="triangle;whiteSpace=wrap;html=1;rotation=-90;fillColor=#b1ddf0;strokeColor=#10739e;" vertex="1" parent="1">
          <mxGeometry x="621" y="1250" width="20" height="30" as="geometry" />
        </mxCell>
        <mxCell id="Ar2ikB2TclvATsd14L9x-199" value="Implementierung Kommunikation" style="html=1;shadow=0;dashed=0;align=center;verticalAlign=middle;shape=mxgraph.arrows2.arrow;dy=0;dx=10;notch=0;fillColor=#6d8764;fontColor=#ffffff;strokeColor=#3A5431;fontSize=13;" vertex="1" parent="1">
          <mxGeometry x="621" y="970" width="200" height="30" as="geometry" />
        </mxCell>
        <mxCell id="Ar2ikB2TclvATsd14L9x-200" value="Implementierung Spiele" style="html=1;shadow=0;dashed=0;align=center;verticalAlign=middle;shape=mxgraph.arrows2.arrow;dy=0;dx=10;notch=0;fillColor=#6d8764;fontColor=#ffffff;strokeColor=#3A5431;fontSize=13;" vertex="1" parent="1">
          <mxGeometry x="891" y="970" width="150" height="30" as="geometry" />
        </mxCell>
        <mxCell id="Ar2ikB2TclvATsd14L9x-201" value="Webseitendesign" style="html=1;shadow=0;dashed=0;align=center;verticalAlign=middle;shape=mxgraph.arrows2.arrow;dy=0;dx=10;notch=0;fillColor=#6d8764;fontColor=#ffffff;strokeColor=#3A5431;fontSize=13;" vertex="1" parent="1">
          <mxGeometry x="621" y="1010" width="110" height="30" as="geometry" />
        </mxCell>
        <mxCell id="Ar2ikB2TclvATsd14L9x-202" value="Präsentation" style="html=1;shadow=0;dashed=0;align=center;verticalAlign=middle;shape=mxgraph.arrows2.arrow;dy=0;dx=10;notch=0;fillColor=#6d8764;fontColor=#ffffff;strokeColor=#3A5431;fontSize=13;" vertex="1" parent="1">
          <mxGeometry x="821" y="850" width="100" height="30" as="geometry" />
        </mxCell>
        <mxCell id="Ar2ikB2TclvATsd14L9x-203" value="Testen" style="html=1;shadow=0;dashed=0;align=center;verticalAlign=middle;shape=mxgraph.arrows2.arrow;dy=0;dx=10;notch=0;fillColor=#6d8764;fontColor=#ffffff;strokeColor=#3A5431;fontSize=13;" vertex="1" parent="1">
          <mxGeometry x="791" y="930" width="100" height="30" as="geometry" />
        </mxCell>
        <mxCell id="Ar2ikB2TclvATsd14L9x-204" value="Implementierung Webseite" style="html=1;shadow=0;dashed=0;align=center;verticalAlign=middle;shape=mxgraph.arrows2.arrow;dy=0;dx=10;notch=0;fillColor=#6d8764;fontColor=#ffffff;strokeColor=#3A5431;fontSize=13;" vertex="1" parent="1">
          <mxGeometry x="741" y="1010" width="300" height="30" as="geometry" />
        </mxCell>
        <mxCell id="Ar2ikB2TclvATsd14L9x-205" style="edgeStyle=orthogonalEdgeStyle;rounded=0;orthogonalLoop=1;jettySize=auto;html=1;entryX=0.583;entryY=-0.011;entryDx=0;entryDy=0;entryPerimeter=0;startArrow=none;startFill=0;endArrow=none;endFill=0;strokeColor=#808080;" edge="1" parent="1">
          <mxGeometry relative="1" as="geometry">
            <mxPoint x="741" y="1040" as="sourcePoint" />
            <mxPoint x="741" y="1200" as="targetPoint" />
            <Array as="points">
              <mxPoint x="741.29" y="1091" />
            </Array>
          </mxGeometry>
        </mxCell>
        <mxCell id="Ar2ikB2TclvATsd14L9x-206" value="Testen" style="html=1;shadow=0;dashed=0;align=center;verticalAlign=middle;shape=mxgraph.arrows2.arrow;dy=0;dx=10;notch=0;fillColor=#6d8764;fontColor=#ffffff;strokeColor=#3A5431;fontSize=13;" vertex="1" parent="1">
          <mxGeometry x="951" y="930" width="200" height="30" as="geometry" />
        </mxCell>
        <mxCell id="Ar2ikB2TclvATsd14L9x-207" value="Dokumentation" style="html=1;shadow=0;dashed=0;align=center;verticalAlign=middle;shape=mxgraph.arrows2.arrow;dy=0;dx=10;notch=0;fillColor=#6d8764;fontColor=#ffffff;strokeColor=#3A5431;fontSize=13;" vertex="1" parent="1">
          <mxGeometry x="951" y="890" width="200" height="30" as="geometry" />
        </mxCell>
        <mxCell id="Ar2ikB2TclvATsd14L9x-208" value="&lt;div style=&quot;font-size: 13px;&quot;&gt;&lt;font style=&quot;font-size: 13px;&quot;&gt;11&lt;/font&gt;&lt;/div&gt;&lt;div style=&quot;font-size: 13px;&quot;&gt;&lt;font style=&quot;font-size: 13px;&quot;&gt;&lt;br&gt;&lt;/font&gt;&lt;/div&gt;&lt;div style=&quot;font-size: 13px;&quot;&gt;&lt;font style=&quot;font-size: 13px;&quot;&gt;&lt;font style=&quot;font-size: 13px;&quot;&gt;20.06&lt;/font&gt;&lt;font style=&quot;font-size: 13px;&quot;&gt;&lt;br&gt;&lt;/font&gt;&lt;/font&gt;&lt;/div&gt;" style="text;html=1;align=center;verticalAlign=middle;resizable=0;points=[];autosize=1;strokeColor=none;fillColor=none;" vertex="1" parent="1">
          <mxGeometry x="1011" y="1200" width="60" height="60" as="geometry" />
        </mxCell>
        <mxCell id="Ar2ikB2TclvATsd14L9x-209" value="&lt;div style=&quot;font-size: 13px;&quot;&gt;&lt;font style=&quot;font-size: 13px;&quot;&gt;12&lt;/font&gt;&lt;/div&gt;&lt;div style=&quot;font-size: 13px;&quot;&gt;&lt;font style=&quot;font-size: 13px;&quot;&gt;&lt;br&gt;&lt;/font&gt;&lt;/div&gt;&lt;div style=&quot;font-size: 13px;&quot;&gt;&lt;font style=&quot;font-size: 13px;&quot;&gt;&lt;font style=&quot;font-size: 13px;&quot;&gt;27.06&lt;/font&gt;&lt;font style=&quot;font-size: 13px;&quot;&gt;&lt;br&gt;&lt;/font&gt;&lt;/font&gt;&lt;/div&gt;" style="text;html=1;align=center;verticalAlign=middle;resizable=0;points=[];autosize=1;strokeColor=none;fillColor=none;" vertex="1" parent="1">
          <mxGeometry x="1061" y="1200" width="60" height="60" as="geometry" />
        </mxCell>
        <mxCell id="Ar2ikB2TclvATsd14L9x-210" value="&lt;div style=&quot;font-size: 13px;&quot;&gt;&lt;font style=&quot;font-size: 13px;&quot;&gt;13&lt;/font&gt;&lt;/div&gt;&lt;div style=&quot;font-size: 13px;&quot;&gt;&lt;font style=&quot;font-size: 13px;&quot;&gt;&lt;br&gt;&lt;/font&gt;&lt;/div&gt;&lt;div style=&quot;font-size: 13px;&quot;&gt;&lt;font style=&quot;font-size: 13px;&quot;&gt;&lt;font style=&quot;font-size: 13px;&quot;&gt;04.07&lt;/font&gt;&lt;font style=&quot;font-size: 13px;&quot;&gt;&lt;br&gt;&lt;/font&gt;&lt;/font&gt;&lt;/div&gt;" style="text;html=1;align=center;verticalAlign=middle;resizable=0;points=[];autosize=1;strokeColor=none;fillColor=none;" vertex="1" parent="1">
          <mxGeometry x="1111" y="1200" width="60" height="60" as="geometry" />
        </mxCell>
        <mxCell id="Ar2ikB2TclvATsd14L9x-211" value="&lt;div style=&quot;font-size: 13px;&quot;&gt;&lt;font style=&quot;font-size: 13px;&quot;&gt;14&lt;/font&gt;&lt;/div&gt;&lt;div style=&quot;font-size: 13px;&quot;&gt;&lt;font style=&quot;font-size: 13px;&quot;&gt;&lt;br&gt;&lt;/font&gt;&lt;/div&gt;&lt;div style=&quot;font-size: 13px;&quot;&gt;&lt;font style=&quot;font-size: 13px;&quot;&gt;&lt;font style=&quot;font-size: 13px;&quot;&gt;11.07&lt;/font&gt;&lt;font style=&quot;font-size: 13px;&quot;&gt;&lt;br&gt;&lt;/font&gt;&lt;/font&gt;&lt;/div&gt;" style="text;html=1;align=center;verticalAlign=middle;resizable=0;points=[];autosize=1;strokeColor=none;fillColor=none;" vertex="1" parent="1">
          <mxGeometry x="1165" y="1200" width="50" height="60" as="geometry" />
        </mxCell>
        <mxCell id="Ar2ikB2TclvATsd14L9x-212" value="" style="verticalLabelPosition=bottom;verticalAlign=top;html=1;shape=mxgraph.basic.8_point_star;fillColor=#f8cecc;gradientColor=#ea6b66;strokeColor=#b85450;" vertex="1" parent="1">
          <mxGeometry x="1175" y="1250" width="30" height="30" as="geometry" />
        </mxCell>
        <mxCell id="Ar2ikB2TclvATsd14L9x-213" value="Präsentation" style="html=1;shadow=0;dashed=0;align=center;verticalAlign=middle;shape=mxgraph.arrows2.arrow;dy=0;dx=10;notch=0;fillColor=#6d8764;fontColor=#ffffff;strokeColor=#3A5431;fontSize=13;" vertex="1" parent="1">
          <mxGeometry x="1091" y="850" width="100" height="30" as="geometry" />
        </mxCell>
        <mxCell id="Ar2ikB2TclvATsd14L9x-214" style="edgeStyle=orthogonalEdgeStyle;rounded=0;orthogonalLoop=1;jettySize=auto;html=1;entryX=0.583;entryY=-0.011;entryDx=0;entryDy=0;entryPerimeter=0;startArrow=none;startFill=0;endArrow=none;endFill=0;strokeColor=#808080;exitX=1;exitY=0.5;exitDx=0;exitDy=0;exitPerimeter=0;" edge="1" parent="1">
          <mxGeometry relative="1" as="geometry">
            <mxPoint x="1191" y="865" as="sourcePoint" />
            <mxPoint x="1191" y="1200" as="targetPoint" />
            <Array as="points">
              <mxPoint x="1191" y="980" />
              <mxPoint x="1191" y="980" />
            </Array>
          </mxGeometry>
        </mxCell>
        <mxCell id="Ar2ikB2TclvATsd14L9x-215" value="" style="triangle;whiteSpace=wrap;html=1;rotation=-90;fillColor=#b1ddf0;strokeColor=#10739e;" vertex="1" parent="1">
          <mxGeometry x="811" y="1250" width="20" height="30" as="geometry" />
        </mxCell>
        <mxCell id="Ar2ikB2TclvATsd14L9x-216" style="edgeStyle=orthogonalEdgeStyle;rounded=0;orthogonalLoop=1;jettySize=auto;html=1;entryX=0.583;entryY=-0.011;entryDx=0;entryDy=0;entryPerimeter=0;startArrow=none;startFill=0;endArrow=none;endFill=0;strokeColor=#808080;exitX=1;exitY=0.5;exitDx=0;exitDy=0;exitPerimeter=0;" edge="1" parent="1" source="Ar2ikB2TclvATsd14L9x-200">
          <mxGeometry relative="1" as="geometry">
            <mxPoint x="1041" y="865" as="sourcePoint" />
            <mxPoint x="1041" y="1200" as="targetPoint" />
            <Array as="points">
              <mxPoint x="1041" y="1040" />
              <mxPoint x="1041" y="1040" />
            </Array>
          </mxGeometry>
        </mxCell>
        <mxCell id="Ar2ikB2TclvATsd14L9x-217" value="&lt;div style=&quot;font-size: 13px;&quot;&gt;&lt;font color=&quot;#3399ff&quot; style=&quot;font-size: 13px;&quot;&gt;Fertigstellung&lt;/font&gt;&lt;/div&gt;&lt;div style=&quot;font-size: 13px;&quot;&gt;&lt;font color=&quot;#3399ff&quot; style=&quot;font-size: 13px;&quot;&gt;Lastenheft&lt;br style=&quot;font-size: 13px;&quot;&gt;&lt;/font&gt;&lt;/div&gt;" style="text;html=1;align=center;verticalAlign=middle;resizable=0;points=[];autosize=1;strokeColor=none;fillColor=none;fontSize=13;" vertex="1" parent="1">
          <mxGeometry x="581" y="1340" width="100" height="40" as="geometry" />
        </mxCell>
        <mxCell id="Ar2ikB2TclvATsd14L9x-218" value="&lt;div style=&quot;font-size: 13px;&quot;&gt;&lt;font color=&quot;#3399ff&quot; style=&quot;font-size: 13px;&quot;&gt;Fertigstellung&lt;/font&gt;&lt;/div&gt;&lt;div style=&quot;font-size: 13px;&quot;&gt;&lt;font color=&quot;#3399ff&quot; style=&quot;font-size: 13px;&quot;&gt;Pflichtenheft &amp;amp;&lt;/font&gt;&lt;/div&gt;&lt;div style=&quot;font-size: 13px;&quot;&gt;&lt;font color=&quot;#3399ff&quot; style=&quot;font-size: 13px;&quot;&gt;Architekturentwurf&lt;br style=&quot;font-size: 13px;&quot;&gt;&lt;/font&gt;&lt;/div&gt;" style="text;html=1;align=center;verticalAlign=middle;resizable=0;points=[];autosize=1;strokeColor=none;fillColor=none;fontSize=13;" vertex="1" parent="1">
          <mxGeometry x="666" y="1330" width="130" height="60" as="geometry" />
        </mxCell>
        <mxCell id="Ar2ikB2TclvATsd14L9x-219" value="&lt;div style=&quot;font-size: 13px;&quot;&gt;&lt;font color=&quot;#3399ff&quot; style=&quot;font-size: 13px;&quot;&gt;Funktionsfähige&lt;/font&gt;&lt;/div&gt;&lt;div style=&quot;font-size: 13px;&quot;&gt;&lt;font color=&quot;#3399ff&quot; style=&quot;font-size: 13px;&quot;&gt;Kommunikation&lt;/font&gt;&lt;/div&gt;&lt;div style=&quot;font-size: 13px;&quot;&gt;&lt;font color=&quot;#3399ff&quot; style=&quot;font-size: 13px;&quot;&gt;(mit Docker)&lt;br style=&quot;font-size: 13px;&quot;&gt;&lt;/font&gt;&lt;/div&gt;" style="text;html=1;align=center;verticalAlign=middle;resizable=0;points=[];autosize=1;strokeColor=none;fillColor=none;fontSize=13;" vertex="1" parent="1">
          <mxGeometry x="766" y="1330" width="120" height="60" as="geometry" />
        </mxCell>
        <mxCell id="Ar2ikB2TclvATsd14L9x-220" value="&lt;div style=&quot;font-size: 13px;&quot;&gt;&lt;font color=&quot;#ff5353&quot; style=&quot;font-size: 13px;&quot;&gt;Zwischen-&lt;/font&gt;&lt;/div&gt;&lt;div style=&quot;font-size: 13px;&quot;&gt;&lt;font color=&quot;#ff5353&quot; style=&quot;font-size: 13px;&quot;&gt;präsentation&lt;br style=&quot;font-size: 13px;&quot;&gt;&lt;/font&gt;&lt;/div&gt;" style="text;html=1;align=center;verticalAlign=middle;resizable=0;points=[];autosize=1;strokeColor=none;fillColor=none;fontSize=13;" vertex="1" parent="1">
          <mxGeometry x="891" y="1280" width="100" height="40" as="geometry" />
        </mxCell>
        <mxCell id="Ar2ikB2TclvATsd14L9x-221" value="&lt;div style=&quot;font-size: 13px;&quot;&gt;&lt;font color=&quot;#3399ff&quot; style=&quot;font-size: 13px;&quot;&gt;Vollständige&lt;/font&gt;&lt;/div&gt;&lt;div style=&quot;font-size: 13px;&quot;&gt;&lt;font color=&quot;#3399ff&quot; style=&quot;font-size: 13px;&quot;&gt;Spieleumsetzung&lt;/font&gt;&lt;/div&gt;" style="text;html=1;align=center;verticalAlign=middle;resizable=0;points=[];autosize=1;strokeColor=none;fillColor=none;fontSize=13;" vertex="1" parent="1">
          <mxGeometry x="981" y="1340" width="120" height="40" as="geometry" />
        </mxCell>
        <mxCell id="Ar2ikB2TclvATsd14L9x-222" value="&lt;div style=&quot;font-size: 13px;&quot;&gt;&lt;font color=&quot;#ff5353&quot; style=&quot;font-size: 13px;&quot;&gt;Abschluss-&lt;/font&gt;&lt;/div&gt;&lt;div style=&quot;font-size: 13px;&quot;&gt;&lt;font color=&quot;#ff5353&quot; style=&quot;font-size: 13px;&quot;&gt;präsentation&lt;br style=&quot;font-size: 13px;&quot;&gt;&lt;/font&gt;&lt;/div&gt;" style="text;html=1;align=center;verticalAlign=middle;resizable=0;points=[];autosize=1;strokeColor=none;fillColor=none;fontSize=13;" vertex="1" parent="1">
          <mxGeometry x="1140" y="1280" width="100" height="40" as="geometry" />
        </mxCell>
        <mxCell id="Ar2ikB2TclvATsd14L9x-223" value="" style="endArrow=none;html=1;rounded=0;entryX=0;entryY=0.5;entryDx=0;entryDy=0;exitX=0.5;exitY=0.125;exitDx=0;exitDy=0;exitPerimeter=0;fillColor=#dae8fc;gradientColor=#7ea6e0;strokeColor=#6c8ebf;fontSize=13;" edge="1" parent="1" source="Ar2ikB2TclvATsd14L9x-217" target="Ar2ikB2TclvATsd14L9x-198">
          <mxGeometry width="50" height="50" relative="1" as="geometry">
            <mxPoint x="831" y="1220" as="sourcePoint" />
            <mxPoint x="881" y="1170" as="targetPoint" />
          </mxGeometry>
        </mxCell>
        <mxCell id="Ar2ikB2TclvATsd14L9x-224" value="" style="endArrow=none;html=1;rounded=0;fillColor=#dae8fc;gradientColor=#7ea6e0;strokeColor=#6c8ebf;entryX=0;entryY=0.5;entryDx=0;entryDy=0;exitX=0.455;exitY=0.167;exitDx=0;exitDy=0;exitPerimeter=0;fontSize=13;" edge="1" parent="1" source="Ar2ikB2TclvATsd14L9x-219" target="Ar2ikB2TclvATsd14L9x-215">
          <mxGeometry width="50" height="50" relative="1" as="geometry">
            <mxPoint x="815" y="1290" as="sourcePoint" />
            <mxPoint x="781" y="1270" as="targetPoint" />
          </mxGeometry>
        </mxCell>
        <mxCell id="Ar2ikB2TclvATsd14L9x-225" value="" style="endArrow=none;html=1;rounded=0;entryX=0;entryY=0.5;entryDx=0;entryDy=0;fillColor=#dae8fc;gradientColor=#7ea6e0;strokeColor=#6c8ebf;exitX=0.5;exitY=0.07;exitDx=0;exitDy=0;exitPerimeter=0;fontSize=13;" edge="1" parent="1" source="Ar2ikB2TclvATsd14L9x-221" target="Ar2ikB2TclvATsd14L9x-180">
          <mxGeometry width="50" height="50" relative="1" as="geometry">
            <mxPoint x="1041" y="1300" as="sourcePoint" />
            <mxPoint x="1041" y="1280" as="targetPoint" />
          </mxGeometry>
        </mxCell>
        <mxCell id="Ar2ikB2TclvATsd14L9x-226" value="" style="endArrow=none;html=1;rounded=0;exitX=0.5;exitY=0.125;exitDx=0;exitDy=0;exitPerimeter=0;fillColor=#dae8fc;gradientColor=#7ea6e0;strokeColor=#6c8ebf;entryX=0;entryY=0.5;entryDx=0;entryDy=0;fontSize=13;" edge="1" parent="1">
          <mxGeometry width="50" height="50" relative="1" as="geometry">
            <mxPoint x="730.72" y="1295" as="sourcePoint" />
            <mxPoint x="730.72" y="1275" as="targetPoint" />
            <Array as="points">
              <mxPoint x="731" y="1340" />
            </Array>
          </mxGeometry>
        </mxCell>
        <mxCell id="Ar2ikB2TclvATsd14L9x-227" value="" style="triangle;whiteSpace=wrap;html=1;rotation=-90;fillColor=#d5e8d4;strokeColor=#82b366;" vertex="1" parent="1">
          <mxGeometry x="845" y="1250" width="20" height="30" as="geometry" />
        </mxCell>
        <mxCell id="Ar2ikB2TclvATsd14L9x-228" value="" style="triangle;whiteSpace=wrap;html=1;rotation=-90;fillColor=#d5e8d4;strokeColor=#82b366;" vertex="1" parent="1">
          <mxGeometry x="711" y="1250" width="20" height="30" as="geometry" />
        </mxCell>
        <mxCell id="Ar2ikB2TclvATsd14L9x-229" value="&lt;div style=&quot;font-size: 13px;&quot;&gt;&lt;font color=&quot;#80ba27&quot; style=&quot;font-size: 13px;&quot;&gt;Test-Webseite +&lt;br style=&quot;font-size: 13px;&quot;&gt;&lt;/font&gt;&lt;/div&gt;&lt;div style=&quot;font-size: 13px;&quot;&gt;&lt;font color=&quot;#80ba27&quot; style=&quot;font-size: 13px;&quot;&gt;Standard-&lt;/font&gt;&lt;/div&gt;&lt;div style=&quot;font-size: 13px;&quot;&gt;&lt;font color=&quot;#80ba27&quot; style=&quot;font-size: 13px;&quot;&gt;funktionalität&lt;br style=&quot;font-size: 13px;&quot;&gt;&lt;/font&gt;&lt;/div&gt;" style="text;html=1;align=center;verticalAlign=middle;resizable=0;points=[];autosize=1;strokeColor=none;fillColor=none;fontSize=13;" vertex="1" parent="1">
          <mxGeometry x="795" y="1400" width="120" height="60" as="geometry" />
        </mxCell>
        <mxCell id="Ar2ikB2TclvATsd14L9x-230" value="" style="triangle;whiteSpace=wrap;html=1;rotation=-90;fillColor=#d5e8d4;strokeColor=#82b366;" vertex="1" parent="1">
          <mxGeometry x="1041" y="1250" width="20" height="30" as="geometry" />
        </mxCell>
        <mxCell id="Ar2ikB2TclvATsd14L9x-231" value="&lt;div style=&quot;font-size: 13px;&quot;&gt;&lt;font color=&quot;#80ba27&quot; style=&quot;font-size: 13px;&quot;&gt;Fertige externe &amp;amp;&lt;/font&gt;&lt;/div&gt;&lt;div style=&quot;font-size: 13px;&quot;&gt;&lt;font color=&quot;#80ba27&quot; style=&quot;font-size: 13px;&quot;&gt;Webseiten-&lt;/font&gt;&lt;/div&gt;&lt;div style=&quot;font-size: 13px;&quot;&gt;&lt;font color=&quot;#80ba27&quot; style=&quot;font-size: 13px;&quot;&gt;navigation&lt;br style=&quot;font-size: 13px;&quot;&gt;&lt;/font&gt;&lt;/div&gt;" style="text;html=1;align=center;verticalAlign=middle;resizable=0;points=[];autosize=1;strokeColor=none;fillColor=none;fontSize=13;" vertex="1" parent="1">
          <mxGeometry x="991" y="1400" width="120" height="60" as="geometry" />
        </mxCell>
        <mxCell id="Ar2ikB2TclvATsd14L9x-232" value="&lt;div style=&quot;font-size: 13px;&quot;&gt;&lt;font color=&quot;#80ba27&quot; style=&quot;font-size: 13px;&quot;&gt;Design &amp;amp;&amp;nbsp;&lt;/font&gt;&lt;/div&gt;&lt;div style=&quot;font-size: 13px;&quot;&gt;&lt;font color=&quot;#80ba27&quot; style=&quot;font-size: 13px;&quot;&gt;Mockups&lt;/font&gt;&lt;/div&gt;" style="text;html=1;align=center;verticalAlign=middle;resizable=0;points=[];autosize=1;strokeColor=none;fillColor=none;fontSize=13;" vertex="1" parent="1">
          <mxGeometry x="681" y="1410" width="80" height="40" as="geometry" />
        </mxCell>
        <mxCell id="Ar2ikB2TclvATsd14L9x-233" value="" style="triangle;whiteSpace=wrap;html=1;rotation=-90;fillColor=#b1ddf0;strokeColor=#10739e;" vertex="1" parent="1">
          <mxGeometry x="721" y="1250" width="20" height="30" as="geometry" />
        </mxCell>
        <mxCell id="Ar2ikB2TclvATsd14L9x-234" value="" style="triangle;whiteSpace=wrap;html=1;rotation=-90;fillColor=#b1ddf0;strokeColor=#10739e;" vertex="1" parent="1">
          <mxGeometry x="1141" y="1250" width="20" height="30" as="geometry" />
        </mxCell>
        <mxCell id="Ar2ikB2TclvATsd14L9x-235" value="&lt;div style=&quot;font-size: 13px;&quot;&gt;&lt;font color=&quot;#3399ff&quot; style=&quot;font-size: 13px;&quot;&gt;Vollständige&lt;/font&gt;&lt;/div&gt;&lt;div style=&quot;font-size: 13px;&quot;&gt;&lt;font color=&quot;#3399ff&quot; style=&quot;font-size: 13px;&quot;&gt;Testabdeckung &amp;amp;&lt;/font&gt;&lt;/div&gt;&lt;div style=&quot;font-size: 13px;&quot;&gt;&lt;font color=&quot;#3399ff&quot; style=&quot;font-size: 13px;&quot;&gt;Dokumentation&lt;br style=&quot;font-size: 13px;&quot;&gt;&lt;/font&gt;&lt;/div&gt;" style="text;html=1;align=center;verticalAlign=middle;resizable=0;points=[];autosize=1;strokeColor=none;fillColor=none;fontSize=13;" vertex="1" parent="1">
          <mxGeometry x="1091" y="1330" width="120" height="60" as="geometry" />
        </mxCell>
        <mxCell id="Ar2ikB2TclvATsd14L9x-236" value="" style="endArrow=none;html=1;rounded=0;entryX=0;entryY=0.5;entryDx=0;entryDy=0;fillColor=#dae8fc;gradientColor=#7ea6e0;strokeColor=#6c8ebf;exitX=0.5;exitY=0.07;exitDx=0;exitDy=0;exitPerimeter=0;fontSize=13;" edge="1" parent="1" source="Ar2ikB2TclvATsd14L9x-235" target="Ar2ikB2TclvATsd14L9x-234">
          <mxGeometry width="50" height="50" relative="1" as="geometry">
            <mxPoint x="1151" y="1300" as="sourcePoint" />
            <mxPoint x="1151" y="1280" as="targetPoint" />
          </mxGeometry>
        </mxCell>
        <mxCell id="Ar2ikB2TclvATsd14L9x-237" value="" style="triangle;whiteSpace=wrap;html=1;rotation=-90;fillColor=#d5e8d4;strokeColor=#82b366;" vertex="1" parent="1">
          <mxGeometry x="1151" y="1250" width="20" height="30" as="geometry" />
        </mxCell>
        <mxCell id="Ar2ikB2TclvATsd14L9x-238" value="&lt;div style=&quot;font-size: 13px;&quot;&gt;&lt;font color=&quot;#80ba27&quot; style=&quot;font-size: 13px;&quot;&gt;Verbesserte&lt;/font&gt;&lt;/div&gt;&lt;div style=&quot;font-size: 13px;&quot;&gt;&lt;font color=&quot;#80ba27&quot; style=&quot;font-size: 13px;&quot;&gt;Webseite&lt;/font&gt;&lt;/div&gt;&lt;div style=&quot;font-size: 13px;&quot;&gt;&lt;font color=&quot;#80ba27&quot; style=&quot;font-size: 13px;&quot;&gt;(nach Usability-Tests)&lt;br style=&quot;font-size: 13px;&quot;&gt;&lt;/font&gt;&lt;/div&gt;" style="text;html=1;align=center;verticalAlign=middle;resizable=0;points=[];autosize=1;strokeColor=none;fillColor=none;fontSize=13;" vertex="1" parent="1">
          <mxGeometry x="1086" y="1400" width="150" height="60" as="geometry" />
        </mxCell>
      </root>
    </mxGraphModel>
  </diagram>
</mxfile>
